<svg width="16" height="16" viewBox="0 0 16 16" fill="none" xmlns="http://www.w3.org/2000/svg">
<g clip-path="url(#clip0_65_885)">
<path d="M12.7109 5.00016L16 8.28923V16.0002H7V5.00016H12.7109ZM13 8.00016H14.2891L13 6.7111V8.00016ZM15 15.0002V9.00016H12V6.00016H8V15.0002H15ZM9 10.0002H10V14.0002H9V10.0002ZM11 12.0002H12V14.0002H11V12.0002ZM13 11.0002H14V14.0002H13V11.0002ZM4.75 1.00016C4.98438 1.00016 5.1849 1.0236 5.35156 1.07048C5.51823 1.11735 5.66927 1.17985 5.80469 1.25798C5.9401 1.3361 6.0599 1.41683 6.16406 1.50016C6.26823 1.5835 6.3724 1.66423 6.47656 1.74235C6.58073 1.82048 6.69531 1.88037 6.82031 1.92204C6.94531 1.9637 7.08854 1.98975 7.25 2.00016H15C15.1406 2.00016 15.2708 2.0262 15.3906 2.07829C15.5104 2.13037 15.6146 2.20068 15.7031 2.28923C15.7917 2.37777 15.8646 2.48454 15.9219 2.60954C15.9792 2.73454 16.0052 2.86475 16 3.00016V6.5236L15 5.5236V3.00016H7.25C7.08854 3.00016 6.94792 3.0236 6.82812 3.07048C6.70833 3.11735 6.59375 3.17985 6.48438 3.25798C6.375 3.3361 6.26823 3.41683 6.16406 3.50016C6.0599 3.5835 5.94271 3.66423 5.8125 3.74235C5.68229 3.82048 5.53125 3.88037 5.35938 3.92204C5.1875 3.9637 4.98438 3.98975 4.75 4.00016H1V13.0002H6V14.0002H0V2.00016C0 1.85954 0.0260417 1.72933 0.078125 1.60954C0.130208 1.48975 0.200521 1.38558 0.289062 1.29704C0.377604 1.2085 0.484375 1.13558 0.609375 1.07829C0.734375 1.021 0.864583 0.994954 1 1.00016H4.75ZM4.75 3.00016C4.875 3.00016 4.98438 2.98975 5.07812 2.96891C5.17188 2.94808 5.25781 2.91423 5.33594 2.86735C5.41406 2.82048 5.48958 2.76839 5.5625 2.7111C5.63542 2.65381 5.71875 2.5835 5.8125 2.50016C5.72396 2.42204 5.64323 2.35433 5.57031 2.29704C5.4974 2.23975 5.41927 2.18766 5.33594 2.14079C5.2526 2.09391 5.16667 2.06006 5.07812 2.03923C4.98958 2.01839 4.88021 2.00537 4.75 2.00016H1V3.00016H4.75Z" fill="white"/>
</g>
<defs>
<clipPath id="clip0_65_885">
<rect width="16" height="16" fill="white"/>
</clipPath>
</defs>
</svg>
