<svg width="21" height="20" viewBox="0 0 21 20" fill="none" xmlns="http://www.w3.org/2000/svg">
<g clip-path="url(#clip0_4_239)">
<path d="M17.3158 4.69824H14.1542V3.83324C14.1533 3.25056 13.9214 2.692 13.5093 2.28006C13.0972 1.86811 12.5385 1.6364 11.9558 1.63574H8.89333C8.31072 1.6364 7.75216 1.86814 7.34019 2.28011C6.92822 2.69208 6.69649 3.25063 6.69583 3.83324V4.69824H3.53416C3.35735 4.69824 3.18778 4.76848 3.06275 4.89351C2.93773 5.01853 2.86749 5.1881 2.86749 5.36491C2.86749 5.54172 2.93773 5.71129 3.06275 5.83632C3.18778 5.96134 3.35735 6.03158 3.53416 6.03158H17.3158C17.4926 6.03158 17.6622 5.96134 17.7872 5.83632C17.9123 5.71129 17.9825 5.54172 17.9825 5.36491C17.9825 5.1881 17.9123 5.01853 17.7872 4.89351C17.6622 4.76848 17.4926 4.69824 17.3158 4.69824ZM8.02916 3.83324C8.0296 3.60419 8.12079 3.38464 8.28275 3.22267C8.44472 3.0607 8.66427 2.96952 8.89333 2.96908H11.9558C12.185 2.9693 12.4048 3.06039 12.5669 3.22238C12.7291 3.38437 12.8204 3.60404 12.8208 3.83324V4.69824H8.02916V3.83324Z" fill="white"/>
<path d="M15.7841 7.29321C15.6073 7.29321 15.4378 7.36345 15.3127 7.48847C15.1877 7.6135 15.1175 7.78307 15.1175 7.95988V16.1707C15.1173 16.3999 15.0262 16.6197 14.8642 16.7818C14.7022 16.944 14.4825 17.0353 14.2533 17.0357H6.59331C6.36411 17.0353 6.14444 16.944 5.98245 16.7818C5.82046 16.6197 5.72937 16.3999 5.72915 16.1707V7.95988C5.72915 7.78307 5.65891 7.6135 5.53388 7.48847C5.40886 7.36345 5.23929 7.29321 5.06248 7.29321C4.88567 7.29321 4.7161 7.36345 4.59108 7.48847C4.46605 7.6135 4.39581 7.78307 4.39581 7.95988V16.1707C4.39625 16.7534 4.62792 17.3121 5.03993 17.7241C5.45195 18.1361 6.01064 18.3678 6.59331 18.3682H14.2508C14.8334 18.3676 15.392 18.1358 15.8039 17.7239C16.2159 17.3119 16.4477 16.7533 16.4483 16.1707V7.95988C16.4483 7.7835 16.3784 7.61431 16.2539 7.48936C16.1294 7.36441 15.9605 7.29387 15.7841 7.29321Z" fill="white"/>
<path d="M9.58584 13.94V9.455C9.58584 9.27819 9.5156 9.10862 9.39057 8.98359C9.26555 8.85857 9.09598 8.78833 8.91917 8.78833C8.74236 8.78833 8.57279 8.85857 8.44776 8.98359C8.32274 9.10862 8.2525 9.27819 8.2525 9.455V13.94C8.2525 14.1168 8.32274 14.2864 8.44776 14.4114C8.57279 14.5364 8.74236 14.6067 8.91917 14.6067C9.09598 14.6067 9.26555 14.5364 9.39057 14.4114C9.5156 14.2864 9.58584 14.1168 9.58584 13.94Z" fill="white"/>
<path d="M12.575 13.94V9.455C12.575 9.27819 12.5047 9.10862 12.3797 8.98359C12.2547 8.85857 12.0851 8.78833 11.9083 8.78833C11.7315 8.78833 11.5619 8.85857 11.4369 8.98359C11.3119 9.10862 11.2416 9.27819 11.2416 9.455V13.94C11.2416 14.1168 11.3119 14.2864 11.4369 14.4114C11.5619 14.5364 11.7315 14.6067 11.9083 14.6067C12.0851 14.6067 12.2547 14.5364 12.3797 14.4114C12.5047 14.2864 12.575 14.1168 12.575 13.94Z" fill="white"/>
</g>
<defs>
<clipPath id="clip0_4_239">
<rect width="20" height="20" fill="white" transform="translate(0.424988)"/>
</clipPath>
</defs>
</svg>
