<svg width="21" height="20" viewBox="0 0 21 20" fill="none" xmlns="http://www.w3.org/2000/svg">
<g clip-path="url(#clip0_4_283)">
<path d="M18.066 17.1683H10.566C10.3891 17.1683 10.2196 17.0981 10.0946 16.973C9.96953 16.848 9.89929 16.6784 9.89929 16.5016C9.89929 16.3248 9.96953 16.1552 10.0946 16.0302C10.2196 15.9052 10.3891 15.835 10.566 15.835H18.066C18.2428 15.835 18.4123 15.9052 18.5374 16.0302C18.6624 16.1552 18.7326 16.3248 18.7326 16.5016C18.7326 16.6784 18.6624 16.848 18.5374 16.973C18.4123 17.0981 18.2428 17.1683 18.066 17.1683Z" fill="white"/>
<path d="M15.6877 2.50173C15.9918 2.50099 16.293 2.56072 16.5739 2.67746C16.8547 2.7942 17.1095 2.96561 17.3235 3.18173C17.7561 3.61742 17.9989 4.20649 17.9989 4.82048C17.9989 5.43446 17.7561 6.02353 17.3235 6.45923L7.62432 16.1934C7.53886 16.2791 7.43169 16.3398 7.31432 16.3692L4.21015 17.1484C4.09852 17.1764 3.98153 17.175 3.87058 17.1444C3.75963 17.1138 3.6585 17.0549 3.57703 16.9736C3.49557 16.8923 3.43653 16.7913 3.40568 16.6805C3.37483 16.5696 3.37321 16.4526 3.40099 16.3409L4.17682 13.2259C4.20611 13.1089 4.2666 13.0021 4.35182 12.9167L14.0485 3.18173C14.2629 2.96521 14.5182 2.79357 14.7997 2.67682C15.0811 2.56006 15.383 2.50054 15.6877 2.50173ZM6.81099 15.1209L16.3818 5.51923C16.5659 5.33378 16.6693 5.08305 16.6693 4.82173C16.6693 4.5604 16.5659 4.30968 16.3818 4.12423C16.2912 4.03302 16.1834 3.96063 16.0647 3.91124C15.946 3.86184 15.8187 3.83641 15.6902 3.83641C15.5616 3.83641 15.4343 3.86184 15.3156 3.91124C15.1969 3.96063 15.0891 4.03302 14.9985 4.12423L5.42682 13.7267L4.96515 15.5842L6.81099 15.1209Z" fill="white"/>
</g>
<defs>
<clipPath id="clip0_4_283">
<rect width="20" height="20" fill="white" transform="translate(0.882629)"/>
</clipPath>
</defs>
</svg>
