<svg width="27" height="27" viewBox="0 0 26 26" fill="none" xmlns="http://www.w3.org/2000/svg">
<path d="M13 18.4165C13.3069 18.4165 13.5644 18.3125 13.7724 18.1045C13.9804 17.8965 14.084 17.6394 14.0833 17.3332C14.0833 17.0262 13.9793 16.7688 13.7713 16.5608C13.5633 16.3528 13.3062 16.2491 13 16.2498C12.693 16.2498 12.4355 16.3538 12.2275 16.5618C12.0195 16.7698 11.9159 17.0269 11.9166 17.3332C11.9166 17.6401 12.0206 17.8976 12.2286 18.1056C12.4366 18.3136 12.6937 18.4172 13 18.4165ZM13 14.0832C13.3069 14.0832 13.5644 13.9792 13.7724 13.7712C13.9804 13.5632 14.084 13.3061 14.0833 12.9998V8.6665C14.0833 8.35956 13.9793 8.10209 13.7713 7.89409C13.5633 7.68609 13.3062 7.58245 13 7.58317C12.693 7.58317 12.4355 7.68717 12.2275 7.89517C12.0195 8.10317 11.9159 8.36028 11.9166 8.6665V12.9998C11.9166 13.3068 12.0206 13.5643 12.2286 13.7723C12.4366 13.9803 12.6937 14.0839 13 14.0832ZM13 23.8332C11.5013 23.8332 10.093 23.5486 8.77496 22.9795C7.4569 22.4104 6.31038 21.6387 5.33538 20.6644C4.36038 19.6894 3.58868 18.5429 3.02029 17.2248C2.4519 15.9068 2.16735 14.4984 2.16663 12.9998C2.16663 11.5012 2.45118 10.0929 3.02029 8.77484C3.5894 7.45678 4.3611 6.31025 5.33538 5.33525C6.31038 4.36025 7.4569 3.58856 8.77496 3.02017C10.093 2.45178 11.5013 2.16723 13 2.1665C14.4986 2.1665 15.9069 2.45106 17.225 3.02017C18.543 3.58928 19.6895 4.36098 20.6645 5.33525C21.6395 6.31025 22.4116 7.45678 22.9807 8.77484C23.5498 10.0929 23.834 11.5012 23.8333 12.9998C23.8333 14.4984 23.5487 15.9068 22.9796 17.2248C22.4105 18.5429 21.6388 19.6894 20.6645 20.6644C19.6895 21.6394 18.543 22.4115 17.225 22.9806C15.9069 23.5497 14.4986 23.8339 13 23.8332ZM13 21.6665C15.4194 21.6665 17.4687 20.8269 19.1479 19.1478C20.827 17.4686 21.6666 15.4193 21.6666 12.9998C21.6666 10.5804 20.827 8.53109 19.1479 6.85192C17.4687 5.17275 15.4194 4.33317 13 4.33317C10.5805 4.33317 8.53121 5.17275 6.85204 6.85192C5.17288 8.53109 4.33329 10.5804 4.33329 12.9998C4.33329 15.4193 5.17288 17.4686 6.85204 19.1478C8.53121 20.8269 10.5805 21.6665 13 21.6665Z" fill="#EB5757"/>
</svg>
