<svg width="16" height="16" viewBox="0 0 16 16" fill="none" xmlns="http://www.w3.org/2000/svg">
<path d="M5.99998 12.6667H12.6666V11.3333H5.99998V12.6667ZM5.99998 8.66667H9.99998V7.33333H5.99998V8.66667ZM5.99998 3.33333V4.66667H14V3.33333H5.99998ZM3.33331 3C3.20195 3.00004 3.07188 3.02596 2.95053 3.07627C2.82918 3.12659 2.71893 3.20031 2.62607 3.29323C2.53321 3.38615 2.45956 3.49645 2.40933 3.61783C2.3591 3.73921 2.33327 3.8693 2.33331 4.00067C2.33336 4.13203 2.35927 4.2621 2.40959 4.38345C2.4599 4.5048 2.53362 4.61505 2.62654 4.70791C2.71946 4.80077 2.82976 4.87442 2.95114 4.92465C3.07253 4.97488 3.20261 5.00071 3.33398 5.00067C3.59928 5.00058 3.85369 4.8951 4.04122 4.70744C4.22876 4.51978 4.33407 4.26531 4.33398 4C4.33389 3.7347 4.22841 3.48029 4.04075 3.29276C3.85309 3.10522 3.59862 2.99991 3.33331 3ZM3.33331 7C3.20195 7.00004 3.07188 7.02596 2.95053 7.07627C2.82918 7.12659 2.71893 7.20031 2.62607 7.29323C2.53321 7.38615 2.45956 7.49645 2.40933 7.61783C2.3591 7.73921 2.33327 7.8693 2.33331 8.00067C2.33336 8.13203 2.35927 8.2621 2.40959 8.38345C2.4599 8.5048 2.53362 8.61505 2.62654 8.70791C2.71946 8.80077 2.82976 8.87442 2.95114 8.92465C3.07253 8.97488 3.20261 9.00071 3.33398 9.00067C3.59928 9.00058 3.85369 8.8951 4.04122 8.70744C4.22876 8.51978 4.33407 8.26531 4.33398 8C4.33389 7.7347 4.22841 7.48029 4.04075 7.29276C3.85309 7.10522 3.59862 6.99991 3.33331 7ZM3.33331 11C3.20195 11 3.07188 11.026 2.95053 11.0763C2.82918 11.1266 2.71893 11.2003 2.62607 11.2932C2.53321 11.3861 2.45956 11.4964 2.40933 11.6178C2.3591 11.7392 2.33327 11.8693 2.33331 12.0007C2.33336 12.132 2.35927 12.2621 2.40959 12.3835C2.4599 12.5048 2.53362 12.6151 2.62654 12.7079C2.71946 12.8008 2.82976 12.8744 2.95114 12.9246C3.07253 12.9749 3.20261 13.0007 3.33398 13.0007C3.59928 13.0006 3.85369 12.8951 4.04122 12.7074C4.22876 12.5198 4.33407 12.2653 4.33398 12C4.33389 11.7347 4.22841 11.4803 4.04075 11.2928C3.85309 11.1052 3.59862 10.9999 3.33331 11Z" fill="#333333"/>
</svg>
