<svg width="20" height="20" viewBox="0 0 20 20" fill="none" xmlns="http://www.w3.org/2000/svg">
<g clip-path="url(#clip0_143_642)">
<path d="M16.8908 4.69824H13.7292V3.83324C13.7283 3.25056 13.4964 2.692 13.0843 2.28006C12.6722 1.86811 12.1135 1.6364 11.5308 1.63574H8.46834C7.88573 1.6364 7.32717 1.86814 6.9152 2.28011C6.50323 2.69208 6.2715 3.25063 6.27084 3.83324V4.69824H3.10917C2.93236 4.69824 2.76279 4.76848 2.63777 4.89351C2.51274 5.01853 2.4425 5.1881 2.4425 5.36491C2.4425 5.54172 2.51274 5.71129 2.63777 5.83632C2.76279 5.96134 2.93236 6.03158 3.10917 6.03158H16.8908C17.0677 6.03158 17.2372 5.96134 17.3622 5.83632C17.4873 5.71129 17.5575 5.54172 17.5575 5.36491C17.5575 5.1881 17.4873 5.01853 17.3622 4.89351C17.2372 4.76848 17.0677 4.69824 16.8908 4.69824ZM7.60417 3.83324C7.60461 3.60419 7.6958 3.38464 7.85777 3.22267C8.01973 3.0607 8.23928 2.96952 8.46834 2.96908H11.5308C11.76 2.9693 11.9798 3.06039 12.1419 3.22238C12.3041 3.38437 12.3954 3.60404 12.3958 3.83324V4.69824H7.60417V3.83324Z" fill="#EB5757"/>
<path d="M15.3592 7.29346C15.1823 7.29346 15.0128 7.36369 14.8878 7.48872C14.7627 7.61374 14.6925 7.78331 14.6925 7.96012V16.171C14.6923 16.4002 14.6012 16.6199 14.4392 16.7821C14.2772 16.9442 14.0575 17.0355 13.8283 17.036H6.16833C5.93913 17.0355 5.71945 16.9442 5.55746 16.7821C5.39547 16.6199 5.30438 16.4002 5.30416 16.171V7.96012C5.30416 7.78331 5.23392 7.61374 5.1089 7.48872C4.98387 7.36369 4.8143 7.29346 4.63749 7.29346C4.46068 7.29346 4.29111 7.36369 4.16609 7.48872C4.04106 7.61374 3.97083 7.78331 3.97083 7.96012V16.171C3.97127 16.7536 4.20293 17.3123 4.61495 17.7243C5.02696 18.1364 5.58565 18.368 6.16833 18.3685H13.8258C14.4084 18.3678 14.967 18.1361 15.379 17.7241C15.7909 17.3121 16.0227 16.7536 16.0233 16.171V7.96012C16.0233 7.78374 15.9534 7.61456 15.8289 7.4896C15.7045 7.36465 15.5355 7.29412 15.3592 7.29346V7.29346Z" fill="#EB5757"/>
<path d="M9.16085 13.9398V9.45476C9.16085 9.27794 9.09061 9.10838 8.96559 8.98335C8.84056 8.85833 8.67099 8.78809 8.49418 8.78809C8.31737 8.78809 8.1478 8.85833 8.02278 8.98335C7.89775 9.10838 7.82751 9.27794 7.82751 9.45476V13.9398C7.82751 14.1166 7.89775 14.2861 8.02278 14.4112C8.1478 14.5362 8.31737 14.6064 8.49418 14.6064C8.67099 14.6064 8.84056 14.5362 8.96559 14.4112C9.09061 14.2861 9.16085 14.1166 9.16085 13.9398V13.9398Z" fill="#EB5757"/>
<path d="M12.15 13.9398V9.45476C12.15 9.27794 12.0797 9.10838 11.9547 8.98335C11.8297 8.85833 11.6601 8.78809 11.4833 8.78809C11.3065 8.78809 11.1369 8.85833 11.0119 8.98335C10.8869 9.10838 10.8167 9.27794 10.8167 9.45476V13.9398C10.8167 14.1166 10.8869 14.2861 11.0119 14.4112C11.1369 14.5362 11.3065 14.6064 11.4833 14.6064C11.6601 14.6064 11.8297 14.5362 11.9547 14.4112C12.0797 14.2861 12.15 14.1166 12.15 13.9398V13.9398Z" fill="#EB5757"/>
</g>
<defs>
<clipPath id="clip0_143_642">
<rect width="20" height="20" fill="white"/>
</clipPath>
</defs>
</svg>
