<svg width="16" height="16" viewBox="0 0 16 16" fill="none" xmlns="http://www.w3.org/2000/svg">
<path d="M7.33334 1.33325C10.6453 1.33325 13.3333 4.02125 13.3333 7.33325C13.3333 10.6453 10.6453 13.3333 7.33334 13.3333C4.02134 13.3333 1.33334 10.6453 1.33334 7.33325C1.33334 4.02125 4.02134 1.33325 7.33334 1.33325ZM7.33334 11.9999C9.91134 11.9999 12 9.91125 12 7.33325C12 4.75459 9.91134 2.66659 7.33334 2.66659C4.75468 2.66659 2.66668 4.75459 2.66668 7.33325C2.66668 9.91125 4.75468 11.9999 7.33334 11.9999ZM12.99 12.0473L14.876 13.9326L13.9327 14.8759L12.0473 12.9899L12.99 12.0473Z" fill="white"/>
</svg>
