<svg width="16" height="16" viewBox="0 0 16 16" fill="none" xmlns="http://www.w3.org/2000/svg">
<path d="M8 0.666748L2 3.33341V7.33342C2 11.0334 4.56 14.4934 8 15.3334C11.44 14.4934 14 11.0334 14 7.33342V3.33341L8 0.666748ZM8 2.12008L12.6667 4.20008V7.48008C12.6667 8.61342 12.3333 9.76675 11.7667 10.7801C10.6667 9.96008 8.84 9.66675 8 9.66675C7.16 9.66675 5.33333 9.96008 4.23333 10.7801C3.66667 9.76675 3.33333 8.61342 3.33333 7.48008V4.20008L8 2.12008ZM8 4.00008C7.38116 4.00008 6.78767 4.24591 6.35008 4.6835C5.9125 5.12108 5.66667 5.71458 5.66667 6.33342C5.66667 6.95225 5.9125 7.54575 6.35008 7.98333C6.78767 8.42092 7.38116 8.66675 8 8.66675C8.61884 8.66675 9.21233 8.42092 9.64992 7.98333C10.0875 7.54575 10.3333 6.95225 10.3333 6.33342C10.3333 5.71458 10.0875 5.12108 9.64992 4.6835C9.21233 4.24591 8.61884 4.00008 8 4.00008ZM8 5.33342C8.26522 5.33342 8.51957 5.43877 8.70711 5.62631C8.89464 5.81384 9 6.0682 9 6.33342C9 6.59863 8.89464 6.85299 8.70711 7.04052C8.51957 7.22806 8.26522 7.33342 8 7.33342C7.73478 7.33342 7.48043 7.22806 7.29289 7.04052C7.10536 6.85299 7 6.59863 7 6.33342C7 6.0682 7.10536 5.81384 7.29289 5.62631C7.48043 5.43877 7.73478 5.33342 8 5.33342ZM8 11.0001C9.04667 11.0001 10.4267 11.4067 11.02 11.8934C10.1933 12.9201 9.13333 13.7001 8 14.0001C6.86667 13.7001 5.80667 12.9201 4.98 11.8934C5.58 11.4067 6.95333 11.0001 8 11.0001Z" fill="#333333"/>
</svg>
