<svg width="16" height="16" viewBox="0 0 16 16" fill="none" xmlns="http://www.w3.org/2000/svg">
<path d="M10.5984 10.0375C10.9765 9.83438 11.4094 9.71875 11.8703 9.71875H11.8719C11.9187 9.71875 11.9406 9.6625 11.9062 9.63125C11.4269 9.20106 10.8793 8.85361 10.2859 8.60312C10.2797 8.6 10.2734 8.59844 10.2672 8.59531C11.2375 7.89062 11.8687 6.74531 11.8687 5.45312C11.8687 3.3125 10.1375 1.57812 8.00154 1.57812C5.8656 1.57812 4.13592 3.3125 4.13592 5.45312C4.13592 6.74531 4.76717 7.89062 5.73904 8.59531C5.73279 8.59844 5.72654 8.6 5.72029 8.60312C5.02185 8.89844 4.39529 9.32188 3.85623 9.8625C3.32028 10.3975 2.89359 11.0317 2.59998 11.7297C2.31109 12.4132 2.15518 13.1456 2.1406 13.8875C2.14019 13.9042 2.14311 13.9208 2.14921 13.9363C2.1553 13.9518 2.16444 13.966 2.17609 13.9779C2.18774 13.9899 2.20166 13.9993 2.21703 14.0058C2.23241 14.0123 2.24892 14.0156 2.2656 14.0156H3.20154C3.26873 14.0156 3.32498 13.9609 3.32654 13.8938C3.35779 12.6875 3.8406 11.5578 4.69529 10.7016C5.5781 9.81563 6.7531 9.32812 8.0031 9.32812C8.88904 9.32812 9.73904 9.57344 10.4719 10.0328C10.4907 10.0446 10.5123 10.0513 10.5345 10.0521C10.5567 10.0529 10.5788 10.0479 10.5984 10.0375ZM8.0031 8.14062C7.28748 8.14062 6.61404 7.86094 6.10623 7.35313C5.85638 7.10392 5.6583 6.80774 5.52342 6.48165C5.38853 6.15557 5.31949 5.80601 5.32029 5.45312C5.32029 4.73594 5.59998 4.06094 6.10623 3.55312C6.61248 3.04531 7.28592 2.76562 8.0031 2.76562C8.72029 2.76562 9.39217 3.04531 9.89998 3.55312C10.1498 3.80233 10.3479 4.09851 10.4828 4.4246C10.6177 4.75068 10.6867 5.10024 10.6859 5.45312C10.6859 6.17031 10.4062 6.84531 9.89998 7.35313C9.39217 7.86094 8.71873 8.14062 8.0031 8.14062ZM13.75 11.8594H12.4375V10.5469C12.4375 10.4781 12.3812 10.4219 12.3125 10.4219H11.4375C11.3687 10.4219 11.3125 10.4781 11.3125 10.5469V11.8594H9.99998C9.93123 11.8594 9.87498 11.9156 9.87498 11.9844V12.8594C9.87498 12.9281 9.93123 12.9844 9.99998 12.9844H11.3125V14.2969C11.3125 14.3656 11.3687 14.4219 11.4375 14.4219H12.3125C12.3812 14.4219 12.4375 14.3656 12.4375 14.2969V12.9844H13.75C13.8187 12.9844 13.875 12.9281 13.875 12.8594V11.9844C13.875 11.9156 13.8187 11.8594 13.75 11.8594Z" fill="white"/>
</svg>
