<svg width="20" height="20" viewBox="0 0 20 20" fill="none" xmlns="http://www.w3.org/2000/svg">
<path d="M6.15832 13.7826C5.00121 12.9666 4.13395 11.8034 3.68218 10.4615C3.23042 9.11959 3.21763 7.66871 3.64565 6.31906C4.07368 4.96941 4.9203 3.79108 6.06284 2.9548C7.20538 2.11852 8.58451 1.66772 10.0004 1.66772C11.4163 1.66772 12.7954 2.11852 13.938 2.9548C15.0805 3.79108 15.9271 4.96941 16.3552 6.31906C16.7832 7.66871 16.7704 9.11959 16.3186 10.4615C15.8669 11.8034 14.9996 12.9666 13.8425 13.7826L15.5783 17.7493C15.6062 17.8127 15.6178 17.8822 15.612 17.9513C15.6063 18.0204 15.5834 18.087 15.5454 18.145C15.5074 18.203 15.4555 18.2506 15.3945 18.2835C15.3335 18.3164 15.2652 18.3336 15.1958 18.3334H4.80416C4.73492 18.3335 4.66675 18.3164 4.6058 18.2835C4.54486 18.2507 4.49306 18.2031 4.4551 18.1452C4.41713 18.0873 4.39419 18.0209 4.38836 17.9519C4.38252 17.8829 4.39396 17.8135 4.42166 17.7501L6.15832 13.7826ZM11.7708 13.2051L12.8808 12.4209C13.7489 11.8091 14.3997 10.9367 14.7387 9.93028C15.0778 8.92382 15.0876 7.83553 14.7667 6.82313C14.4458 5.81074 13.8108 4.92682 12.9539 4.29948C12.0969 3.67214 11.0624 3.33397 10.0004 3.33397C8.93836 3.33397 7.90391 3.67214 7.04695 4.29948C6.18999 4.92682 5.55504 5.81074 5.23413 6.82313C4.91322 7.83553 4.923 8.92382 5.26208 9.93028C5.60115 10.9367 6.25189 11.8091 7.11999 12.4209L8.22916 13.2051L6.71499 16.6668H13.285L11.7708 13.2051ZM6.76582 9.14175L8.38249 8.73759C8.47221 9.09872 8.6802 9.41945 8.97333 9.64867C9.26647 9.87789 9.62788 10.0024 9.99999 10.0024C10.3721 10.0024 10.7335 9.87789 11.0266 9.64867C11.3198 9.41945 11.5278 9.09872 11.6175 8.73759L13.2342 9.14175C13.0529 9.86216 12.6362 10.5014 12.0504 10.9581C11.4645 11.4149 10.7429 11.6629 9.99999 11.6629C9.25712 11.6629 8.53552 11.4149 7.94963 10.9581C7.36374 10.5014 6.94711 9.86216 6.76582 9.14175Z" fill="#4F4F4F"/>
</svg>
